<svg id="Layer_1" data-name="Layer 1" xmlns="http://www.w3.org/2000/svg" xmlns:xlink="http://www.w3.org/1999/xlink" viewBox="0 0 300 300"><defs><style>.cls-1{fill:#231f20;}.cls-2,.cls-3{fill:#fff;}.cls-3{opacity:0.9;}.cls-4{fill:url(#linear-gradient);}</style><linearGradient id="linear-gradient" x1="94.7" y1="189.93" x2="205.3" y2="189.93" gradientUnits="userSpaceOnUse"><stop offset="0" stop-color="#2e3192"/><stop offset="1" stop-color="#27aae1"/></linearGradient></defs><path class="cls-1" d="M246.72,140.81l-62.48-56.2v-27h7a4.67,4.67,0,0,0,0-9.34H108.79a4.67,4.67,0,0,0,0,9.34h7v27l-62.48,56.2a4.79,4.79,0,0,0-.36,6.75L59,154.33a4.78,4.78,0,0,0,6.75.35l3.74-3.37v95.76a4.62,4.62,0,0,0,4.62,4.62H225.88a4.62,4.62,0,0,0,4.62-4.62V151.31l3.74,3.37a4.78,4.78,0,0,0,6.75-.35l6.09-6.77A4.79,4.79,0,0,0,246.72,140.81ZM150,233.29a64.13,64.13,0,0,1-29.57-121h4.66V57.65h49.82v54.58h4.66A64.14,64.14,0,0,1,150,233.29Z"/><rect class="cls-2" x="73.89" y="207.96" width="151.58" height="38.22" rx="8.72"/><path class="cls-1" d="M217.12,247.83H82.24a10,10,0,0,1-10-10V216.31a10,10,0,0,1,10-10H217.12a10,10,0,0,1,10,10v21.52A10,10,0,0,1,217.12,247.83ZM82.24,209.61a6.72,6.72,0,0,0-6.71,6.7v21.52a6.71,6.71,0,0,0,6.71,6.7H217.12a6.7,6.7,0,0,0,6.7-6.7V216.31a6.71,6.71,0,0,0-6.7-6.7Z"/><rect class="cls-2" x="74.21" y="169.9" width="151.58" height="38.22" rx="8.33"/><path class="cls-1" d="M217.44,209.76H82.56a10,10,0,0,1-10-10V178.25a10,10,0,0,1,10-10H217.44a10,10,0,0,1,10,10v21.52A10,10,0,0,1,217.44,209.76ZM82.56,171.55a6.7,6.7,0,0,0-6.7,6.7v21.52a6.71,6.71,0,0,0,6.7,6.7H217.44a6.71,6.71,0,0,0,6.7-6.7V178.25a6.7,6.7,0,0,0-6.7-6.7Z"/><rect class="cls-2" x="74.21" y="131.84" width="151.58" height="38.22" rx="7.75"/><path class="cls-1" d="M217.44,171.7H82.56a10,10,0,0,1-10-10V140.18a10,10,0,0,1,10-10H217.44a10,10,0,0,1,10,10v21.53A10,10,0,0,1,217.44,171.7ZM82.56,133.48a6.71,6.71,0,0,0-6.7,6.7v21.53a6.71,6.71,0,0,0,6.7,6.7H217.44a6.71,6.71,0,0,0,6.7-6.7V140.18a6.71,6.71,0,0,0-6.7-6.7Z"/><path class="cls-1" d="M174.91,104.67v11.18a59,59,0,1,1-49.82-.31V104.43a69.28,69.28,0,1,0,49.82.24Z"/><path class="cls-3" d="M120.43,112.23a64.16,64.16,0,1,0,59.14,0"/><path class="cls-4" d="M205.3,168.65a55.3,55.3,0,0,1-110.6,0c0-36.89,71.54,20.19,110.6,0"/></svg>