<svg id="Layer_1" data-name="Layer 1" xmlns="http://www.w3.org/2000/svg" viewBox="0 0 300 300"><defs><style>.cls-1{fill:#231f20;}.cls-2{fill:#fff;stroke:#231f20;stroke-miterlimit:10;}</style></defs><path class="cls-1" d="M251.11,136.66,153.34,48.72a5,5,0,0,0-6.68,0L48.89,136.66a5,5,0,0,0-.37,7.05l6.36,7.07a5,5,0,0,0,7.06.38l3.91-3.52V247.73a4.83,4.83,0,0,0,4.83,4.83H229.32a4.83,4.83,0,0,0,4.83-4.83V147.64l3.91,3.52a5,5,0,0,0,7.06-.38l6.36-7.07A5,5,0,0,0,251.11,136.66Z"/><rect class="cls-2" x="73.1" y="210.8" width="153.14" height="32.06" rx="2.54"/><rect class="cls-2" x="73.1" y="171.9" width="153.14" height="32.06" rx="2.54"/><rect class="cls-2" x="73.1" y="133.97" width="153.14" height="32.06" rx="2.54"/><path class="cls-1" d="M186.54,154.88h-98a4.88,4.88,0,0,1,0-9.76h98a4.88,4.88,0,0,1,0,9.76Z"/><path class="cls-1" d="M211.38,154.88h-3.6a4.88,4.88,0,0,1,0-9.76h3.6a4.88,4.88,0,0,1,0,9.76Z"/><path class="cls-1" d="M186.54,192.8h-98a4.88,4.88,0,0,1,0-9.75h98a4.88,4.88,0,1,1,0,9.75Z"/><path class="cls-1" d="M211.38,192.8h-3.6a4.88,4.88,0,0,1,0-9.75h3.6a4.88,4.88,0,0,1,0,9.75Z"/><path class="cls-1" d="M186.54,231.71h-98a4.88,4.88,0,0,1,0-9.76h98a4.88,4.88,0,0,1,0,9.76Z"/><path class="cls-1" d="M211.38,231.71h-3.6a4.88,4.88,0,0,1,0-9.76h3.6a4.88,4.88,0,0,1,0,9.76Z"/></svg>