<svg id="Layer_1" data-name="Layer 1" xmlns="http://www.w3.org/2000/svg" xmlns:xlink="http://www.w3.org/1999/xlink" viewBox="0 0 300 300"><defs><style>.cls-1{fill:url(#linear-gradient);}.cls-2{fill:#231f20;}.cls-3{fill:#fff;}.cls-4{fill:url(#linear-gradient-2);}.cls-5{fill:url(#linear-gradient-3);}.cls-6{fill:url(#linear-gradient-4);}.cls-7{fill:url(#linear-gradient-5);}.cls-8{fill:url(#linear-gradient-6);}.cls-9{fill:url(#linear-gradient-7);}</style><linearGradient id="linear-gradient" x1="52.19" y1="150" x2="247.81" y2="150" gradientUnits="userSpaceOnUse"><stop offset="0" stop-color="#2e3192"/><stop offset="1" stop-color="#27aae1"/></linearGradient><linearGradient id="linear-gradient-2" x1="84.6" y1="197.52" x2="187.91" y2="197.52" xlink:href="#linear-gradient"/><linearGradient id="linear-gradient-3" x1="206.35" y1="197.52" x2="215.07" y2="197.52" xlink:href="#linear-gradient"/><linearGradient id="linear-gradient-4" x1="84.6" y1="158.91" x2="187.91" y2="158.91" xlink:href="#linear-gradient"/><linearGradient id="linear-gradient-5" x1="206.35" y1="158.91" x2="215.07" y2="158.91" xlink:href="#linear-gradient"/><linearGradient id="linear-gradient-6" x1="84.6" y1="120.79" x2="187.91" y2="120.79" xlink:href="#linear-gradient"/><linearGradient id="linear-gradient-7" x1="206.35" y1="120.79" x2="215.07" y2="120.79" xlink:href="#linear-gradient"/></defs><path class="cls-1" d="M244.69,211.32l-64.5-101.14V72.89h5.94a3.21,3.21,0,0,0,3.28-3.12V60.55a3.21,3.21,0,0,0-3.28-3.12H113.87a3.21,3.21,0,0,0-3.28,3.12v9.22a3.21,3.21,0,0,0,3.28,3.12h5.94v37.29L55.31,211.32c-8.86,13.89,2.21,31.25,19.93,31.25H224.76C242.48,242.57,253.55,225.21,244.69,211.32Z"/><path class="cls-2" d="M224.76,245.21H75.24c-9.77,0-18.56-5-22.95-13a21.66,21.66,0,0,1,.79-22.34l64.09-100.49V75.53h-3.3A5.85,5.85,0,0,1,108,69.77V60.55a5.85,5.85,0,0,1,5.92-5.76h72.26a5.85,5.85,0,0,1,5.92,5.76v9.22a5.85,5.85,0,0,1-5.92,5.76h-3.3v33.88L246.92,209.9a21.66,21.66,0,0,1,.79,22.34C243.32,240.24,234.53,245.21,224.76,245.21ZM113.87,60.07a.59.59,0,0,0-.64.48v9.22a.59.59,0,0,0,.64.48h8.58V111l-.42.65L57.53,212.74a16.24,16.24,0,0,0-.61,17c3.46,6.31,10.48,10.23,18.32,10.23H224.76c7.84,0,14.86-3.92,18.32-10.23a16.24,16.24,0,0,0-.61-17L177.55,111V70.25h8.58a.59.59,0,0,0,.64-.48V60.55a.59.59,0,0,0-.64-.48Z"/><rect class="cls-3" x="68.99" y="181.85" width="161.67" height="35.47" rx="2.54"/><path class="cls-2" d="M225.94,220H73.72a7.37,7.37,0,0,1-7.37-7.36v-26a7.37,7.37,0,0,1,7.37-7.36H225.94a7.37,7.37,0,0,1,7.36,7.36v26A7.37,7.37,0,0,1,225.94,220ZM73.72,184.49a2.09,2.09,0,0,0-2.09,2.08v26a2.09,2.09,0,0,0,2.09,2.08H225.94a2.09,2.09,0,0,0,2.09-2.08v-26a2.09,2.09,0,0,0-2.09-2.08Z"/><rect class="cls-3" x="69.33" y="141.18" width="161.67" height="35.47" rx="2.54"/><path class="cls-2" d="M226.28,179.28H74.06a7.37,7.37,0,0,1-7.36-7.36v-26a7.37,7.37,0,0,1,7.36-7.36H226.28a7.37,7.37,0,0,1,7.37,7.36v26A7.37,7.37,0,0,1,226.28,179.28ZM74.06,143.82A2.09,2.09,0,0,0,72,145.9v26A2.09,2.09,0,0,0,74.06,174H226.28a2.09,2.09,0,0,0,2.09-2.08v-26a2.09,2.09,0,0,0-2.09-2.08Z"/><rect class="cls-3" x="69.33" y="103.06" width="161.67" height="35.47" rx="2.54"/><path class="cls-2" d="M226.28,141.16H74.06a7.37,7.37,0,0,1-7.36-7.36v-26a7.37,7.37,0,0,1,7.36-7.36H226.28a7.37,7.37,0,0,1,7.37,7.36v26A7.37,7.37,0,0,1,226.28,141.16ZM74.06,105.7A2.09,2.09,0,0,0,72,107.78v26a2.09,2.09,0,0,0,2.09,2.08H226.28a2.09,2.09,0,0,0,2.09-2.08v-26a2.09,2.09,0,0,0-2.09-2.08Z"/><path class="cls-4" d="M185.27,200.16h-98a2.64,2.64,0,0,1,0-5.28h98a2.64,2.64,0,0,1,0,5.28Z"/><path class="cls-5" d="M212.43,200.16H209a2.64,2.64,0,0,1,0-5.28h3.44a2.64,2.64,0,0,1,0,5.28Z"/><path class="cls-6" d="M185.27,161.55h-98a2.64,2.64,0,0,1,0-5.28h98a2.64,2.64,0,0,1,0,5.28Z"/><path class="cls-7" d="M212.43,161.55H209a2.64,2.64,0,1,1,0-5.28h3.44a2.64,2.64,0,1,1,0,5.28Z"/><path class="cls-8" d="M185.27,123.43h-98a2.64,2.64,0,0,1,0-5.28h98a2.64,2.64,0,0,1,0,5.28Z"/><path class="cls-9" d="M212.43,123.43H209a2.64,2.64,0,0,1,0-5.28h3.44a2.64,2.64,0,0,1,0,5.28Z"/></svg>